

<svg version="1.1" xmlns="http://www.w3.org/2000/svg">
  <symbol id="default" viewBox="0 0 1200 1200">
    <path d="M1137 600.984C1137 897.549 896.587 1138 600.024 1138 303.43 1138 63 897.55 63 600.984 63 304.434 303.43 64 600.024 64 896.587 64 1137 304.435 1137 600.984" fill="#0B0B09"/>
    <path d="M774.668 774.871V456.843c0-25.91 1.988-43.495 5.932-52.708-8.793.647-15.065 3.136-18.783 7.42-3.75 4.266-6.045 10.198-6.934 17.779-.873 7.58-1.31 19.719-1.31 36.415v317.689c0 15.823-1.6 26.637-4.768 32.455-3.2 5.82-9.747 11.476-19.624 16.972h11.526c15.178 0 24.602-4.332 28.352-13.028 3.717-8.663 5.609-23.647 5.609-44.966zM369.623 404.135h-12.204c13.626 5.253 24.327 12.575 32.134 21.901 7.791 9.343 15.76 23.906 23.891 43.673l152.591 363.156c4.85-8.777 7.274-16.47 7.274-23.065 0-6.142-2.425-14.935-7.274-26.362L434.878 465.087c-8.13-20.867-16.746-36.238-25.863-46.13-9.133-9.892-22.258-14.822-39.392-14.822zm-25.702 428.73h69.523c-7.904-4.17-14.321-9.94-19.268-17.311-4.93-7.354-8.631-15.97-11.04-25.861-3.087 9.019-7.872 16.987-14.338 23.89-6.482 6.917-14.774 13.35-24.877 19.282zm259.696-94.571L747.641 386H890v18.135c-22.177.21-37.776 3.071-46.78 8.567-9.02 5.479-14.289 13.399-15.84 23.727-1.536 10.329-2.296 29.32-2.296 57.008v284.731c0 14.483 1.924 25.49 5.77 32.941 3.832 7.468 10.039 12.704 18.622 15.662 8.567 2.958 22.08 4.995 40.524 6.094V851H677.44v-18.135c21.094-.21 36.37-2.845 45.81-7.904 9.455-5.06 15.064-11.815 16.81-20.269 1.746-8.453 2.635-22.467 2.635-42.024V444.656L578.902 851H559.78L397.975 457.506v269.91c0 30.322 5.754 54.001 17.296 71.021 11.525 17.02 30.696 28.496 57.496 34.428V851H306v-18.135c23.52-2.408 41.655-11.59 54.393-27.526 12.754-15.905 19.106-38.258 19.106-67.045V432.469c-9.003-9.892-19.769-17.246-32.296-22.079-12.511-4.832-26.251-6.918-41.203-6.255V386h150.635l146.982 352.294z" fill="#FFFEF4"/>
    <path d="M600.016 24.432C282.642 24.432 24.464 282.626 24.464 600c0 317.374 258.178 575.536 575.552 575.536 317.358 0 575.52-258.162 575.52-575.536 0-317.374-258.162-575.568-575.52-575.568zm0 1175.568C269.156 1200 0 930.81 0 600 0 269.157 269.157 0 600.016 0 930.843 0 1200 269.157 1200 600c0 330.81-269.157 600-599.984 600z" fill="#0B0B09"/>
  </symbol>
  <symbol id="twitter" viewBox="0 0 1200 1200">
    <path d="M375.305 971.729c451.017 0 697.627-373.729 697.627-697.627 0-10.678 0-21.356-.508-31.526 47.796-34.576 89.491-77.796 122.542-127.118-43.729 19.322-91.017 32.542-140.847 38.644 50.847-30.509 89.491-78.305 107.796-135.763-47.288 27.966-99.66 48.305-155.593 59.492C961.576 30.034 898.017.542 827.339.542c-135.254 0-245.085 109.83-245.085 245.085 0 19.322 2.034 38.136 6.61 55.932C384.966 291.39 204.458 193.763 83.441 45.29c-20.848 36.1-33.051 78.304-33.051 123.05 0 84.915 43.22 160.17 109.322 203.898-40.17-1.017-77.797-12.203-110.848-30.508v3.05c0 118.984 84.407 217.628 196.78 240.51-20.339 5.592-42.203 8.643-64.576 8.643a234.094 234.094 0 0 1-46.271-4.576c31.017 97.627 121.525 168.305 228.813 170.339C279.712 825.288 173.95 864.44 59.034 864.44c-19.83 0-39.153-1.017-58.475-3.56C107.847 931.051 237 971.73 375.305 971.73" fill="#000" fill-rule="nonzero"/>
  </symbol>
  <symbol id="wallet" viewBox="0 0 1200 1200">
    <defs>
      <path id="a" d="M0 0h1200v1080H0z"/>
    </defs>
    <g fill="none" fill-rule="evenodd">
      <mask id="b" fill="#fff">
        <use xlink:href="#a"/>
      </mask>
      <path d="M1160 726.206H820c-11.045 0-20-8.8-20-19.655V549.307c0-10.855 8.955-19.655 20-19.655h340v196.554zm-20 314.484H60c-11.045 0-20-8.801-20-19.656V234.826c0-10.857 8.955-19.655 20-19.655h1080c11.045 0 20 8.798 20 19.655V490.34H820c-33.138 0-60 26.402-60 58.966V706.55c0 32.564 26.862 58.966 60 58.966h340v255.517c0 10.855-8.955 19.656-20 19.656zm-83.54-1001.1c10.87-1.923 21.27 5.182 23.225 15.865.21 1.147.315 2.31.315 3.476v116.93H284.48l771.98-136.27zM1140 175.86h-20V58.931c-.02-32.566-26.9-58.95-60.037-58.931-3.54.002-7.075.312-10.563.926L56.46 176.175h-.14C24.75 178.079.11 203.74 0 234.825v786.21C0 1053.597 26.863 1080 60 1080h1080c33.138 0 60-26.402 60-58.966V234.826c0-32.566-26.862-58.966-60-58.966z" fill="#0A090B" mask="url(#b)"/>
      <path d="M900 592c-11.045 0-20 8.954-20 19.999 0 11.047 8.955 20.002 20 20.002s20-8.955 20-20.002c0-11.045-8.955-20-20-20zm0 80c-33.138 0-60-26.864-60-60.001C840 578.864 866.862 552 900 552c33.138 0 60 26.864 60 59.999C960 645.136 933.138 672 900 672z" fill="#0A090B" mask="url(#b)"/>
    </g>
  </symbol>
</svg>
